<?xml version="1.0" encoding="UTF-8" standalone="no"?>
<!-- Created with Inkscape (http://www.inkscape.org/) -->

<svg
   xmlns:dc="http://purl.org/dc/elements/1.1/"
   xmlns:cc="http://creativecommons.org/ns#"
   xmlns:rdf="http://www.w3.org/1999/02/22-rdf-syntax-ns#"
   xmlns:svg="http://www.w3.org/2000/svg"
   xmlns="http://www.w3.org/2000/svg"
   xmlns:sodipodi="http://sodipodi.sourceforge.net/DTD/sodipodi-0.dtd"
   xmlns:inkscape="http://www.inkscape.org/namespaces/inkscape"
   width="161.13126mm"
   height="114.82917mm"
   viewBox="0 0 161.13126 114.82917"
   version="1.1"
   id="svg854"
   inkscape:version="0.92.3 (2405546, 2018-03-11)"
   sodipodi:docname="potistiri.svg">
  <defs
     id="defs848" />
  <sodipodi:namedview
     id="base"
     pagecolor="#ffffff"
     bordercolor="#666666"
     borderopacity="1.0"
     inkscape:pageopacity="0.0"
     inkscape:pageshadow="2"
     inkscape:zoom="0.35"
     inkscape:cx="-589.7857"
     inkscape:cy="-28.714273"
     inkscape:document-units="mm"
     inkscape:current-layer="layer1"
     showgrid="false"
     inkscape:window-width="1366"
     inkscape:window-height="705"
     inkscape:window-x="-8"
     inkscape:window-y="-8"
     inkscape:window-maximized="1"
     fit-margin-top="0"
     fit-margin-left="0"
     fit-margin-right="0"
     fit-margin-bottom="0" />
  <metadata
     id="metadata851">
    <rdf:RDF>
      <cc:Work
         rdf:about="">
        <dc:format>image/svg+xml</dc:format>
        <dc:type
           rdf:resource="http://purl.org/dc/dcmitype/StillImage" />
        <dc:title />
      </cc:Work>
    </rdf:RDF>
  </metadata>
  <g
     inkscape:label="Layer 1"
     inkscape:groupmode="layer"
     id="layer1"
     transform="translate(-16.196276,-26.406842)">
    <path
       inkscape:connector-curvature="0"
       id="path1443"
       d="m 82.143676,141.04154 c 0.691225,-0.0545 1.822318,-0.0545 2.513542,0 0.691225,0.0545 0.125677,0.0991 -1.256771,0.0991 -1.382447,0 -1.947995,-0.0446 -1.256771,-0.0991 z m 20.786454,-0.004 c 2.37388,-0.0439 6.18388,-0.0438 8.46667,1.9e-4 2.28279,0.044 0.34052,0.0799 -4.31614,0.0798 -4.65667,-1.1e-4 -6.52441,-0.0361 -4.15053,-0.08 z m -48.999575,-0.36083 c -3.176855,-0.7458 -7.049738,-4.00088 -8.696412,-7.30915 -1.432915,-2.87881 -1.614316,-4.17079 -1.439987,-10.25593 0.160911,-5.61683 0.755213,-12.14039 2.048819,-22.48959 0.436547,-3.492501 0.820486,-6.631682 0.8532,-6.975958 0.05433,-0.571809 -0.169395,-0.699487 -2.586356,-1.475972 -4.819921,-1.548477 -8.066051,-3.55526 -11.305284,-6.989017 -2.048711,-2.171742 -2.989863,-3.501726 -4.238986,-5.990304 -7.254892,-14.453627 0.644746,-31.932564 16.33802,-36.149911 1.58803,-0.42676 3.103293,-0.593567 6.067119,-0.667895 2.172748,-0.05449 3.987565,-0.136183 4.032922,-0.181542 0.152956,-0.152955 1.409335,-6.591557 1.409335,-7.222455 0,-0.453315 -0.148709,-0.625074 -0.541192,-0.625074 -0.297656,0 -0.833437,-0.292244 -1.190625,-0.649431 -0.859195,-0.859194 -0.859195,-2.075277 0,-2.934471 l 0.64943,-0.649431 h 30.25693 c 29.717682,0 30.266882,0.0093 30.815312,0.520216 0.30712,0.286119 0.63803,0.771146 0.73537,1.077838 0.24266,0.764553 -0.30099,1.963588 -1.07913,2.380034 -0.3542,0.189565 -0.64401,0.497163 -0.64401,0.68355 0,0.186388 0.40786,2.458222 0.90635,5.04852 1.69594,8.812609 3.11703,16.860484 5.28336,29.920627 1.18966,7.172087 2.26965,13.049528 2.39999,13.060979 0.13035,0.01146 5.23152,-7.857606 11.33595,-17.4868 l 11.09895,-17.507619 -0.79308,-1.10961 c -3.16161,-4.423446 -3.88556,-9.829281 -1.99998,-14.934089 0.2693,-0.729058 0.57619,-1.12448 0.87272,-1.12448 0.71712,0 27.252,13.493777 27.252,13.858455 0,1.167845 -3.26238,4.755861 -5.62762,6.189347 -2.50193,1.516327 -4.22161,1.989574 -7.83936,2.157352 l -3.28052,0.152139 -4.42913,10.31875 c -2.43602,5.675313 -8.49747,19.784219 -13.46988,31.353126 l -9.04074,21.034376 0.31905,5.82084 c 0.25387,4.6316 0.25126,6.21801 -0.0127,7.76489 -0.64793,3.7961 -3.20111,7.61072 -6.493,9.70097 -1.85426,1.1774 -5.15938,2.30184 -5.15938,1.75529 0,-0.1297 0.45242,-0.30816 1.00539,-0.39658 1.85701,-0.29695 4.32142,-1.75586 6.29092,-3.72418 3.83967,-3.83735 4.57732,-7.16315 3.79558,-17.11279 l -0.2852,-3.62982 6.00353,-13.97993 c 3.30194,-7.688972 9.2726,-21.599941 13.26814,-30.913275 3.99554,-9.313334 7.4714,-17.290521 7.72415,-17.727084 l 0.45954,-0.79375 2.76324,-0.01539 c 4.28785,-0.02388 7.54885,-1.228264 10.41281,-3.84576 1.69392,-1.54815 3.17448,-3.544482 2.98838,-4.029439 -0.14758,-0.384586 -25.85716,-13.408369 -26.46878,-13.408369 -0.74958,0 -1.61156,3.416626 -1.60531,6.362937 0.007,3.136526 0.7627,5.696812 2.40585,8.147169 0.62682,0.934752 1.13967,1.902499 1.13967,2.15055 0,0.489257 -22.06833,35.466496 -22.57433,35.779217 -0.16924,0.104598 -0.39137,0.105839 -0.49362,0.0028 -0.10225,-0.103076 -0.49545,-2.151946 -0.87378,-4.55304 -1.81364,-11.510471 -4.36286,-26.221057 -6.49632,-37.487795 -0.72157,-3.810631 -1.31195,-6.983792 -1.31195,-7.05147 0,-0.06768 0.41672,-0.368921 0.92604,-0.669429 0.81151,-0.478804 0.92604,-0.676517 0.92604,-1.598631 0,-2.021895 2.42307,-1.87601 -31.159441,-1.87601 H 55.595143 l -0.649431,0.649432 c -0.357188,0.357187 -0.649434,0.898381 -0.649434,1.202652 0,0.701386 1.133523,1.852083 1.824444,1.852083 0.289068,0 0.593701,0.110224 0.67696,0.244943 0.157096,0.254187 -1.043692,6.898674 -1.412796,7.81761 -0.194057,0.483132 -0.493064,0.524679 -4.022562,0.558926 -3.157437,0.03064 -4.24792,0.152194 -6.343285,0.707091 -8.842902,2.341785 -15.60236,9.069215 -18.026612,17.941196 -0.527773,1.93148 -0.606795,2.817847 -0.588128,6.596902 0.01946,3.940447 0.09045,4.591918 0.728886,6.689153 2.602062,8.547667 8.895543,14.829738 17.295225,17.26387 1.275897,0.369742 2.416783,0.769226 2.535298,0.887741 0.118517,0.118517 -0.199943,3.537283 -0.707689,7.59726 -2.133259,17.05771 -2.709754,26.15696 -1.880143,29.67564 0.942158,3.99602 3.904147,7.69631 7.565116,9.45079 1.068917,0.51226 2.148173,0.93139 2.398353,0.93139 0.250179,0 0.528455,0.11906 0.618392,0.26458 0.08994,0.14552 0.12673,0.25262 0.08176,0.23801 -0.04497,-0.0146 -0.543994,-0.13509 -1.108943,-0.26772 z M 80.265248,93.256503 C 79.421881,92.358777 79.12786,91.06846 79.327051,89.1392 c 0.174728,-1.692333 0.174363,-1.693537 -0.455557,-1.504336 -0.346731,0.104143 -1.404329,0.248777 -2.350213,0.321408 -1.422181,0.109204 -1.867369,0.039 -2.572586,-0.405688 -1.708133,-1.077087 -1.278658,-3.115191 1.102311,-5.231109 1.237697,-1.099916 1.300411,-1.212136 0.836732,-1.497187 -3.501475,-2.152587 -4.42475,-4.36706 -2.438321,-5.848303 0.609338,-0.454374 1.10273,-0.541996 2.959878,-0.52565 2.490139,0.02193 2.423864,0.08989 1.943753,-1.993541 -0.539198,-2.339848 0.457695,-4.508367 2.072548,-4.508367 1.039733,0 3.032967,1.323258 3.756382,2.493769 0.699758,1.132231 0.994422,1.109353 1.678242,-0.130297 2.595573,-4.705337 6.749503,-3.388675 6.130672,1.943222 -0.184001,1.585378 -0.182223,1.591006 0.44105,1.394492 0.344189,-0.108519 1.351323,-0.257741 2.238074,-0.331602 3.44483,-0.286936 4.735417,1.672256 2.914319,4.424121 -0.341707,0.516351 -1.052679,1.232676 -1.579943,1.591829 -0.527265,0.359153 -0.959475,0.730991 -0.96047,0.826304 -0.0011,0.09531 0.52994,0.484921 1.179852,0.865794 2.155505,1.263211 3.159569,3.161683 2.424223,4.583687 -0.564478,1.091586 -1.776211,1.529029 -4.097123,1.479095 l -1.946447,-0.04188 0.170921,0.835631 c 0.440706,2.154597 0.455371,3.004206 0.06786,3.931637 -0.987036,2.362308 -3.018235,2.270982 -5.4176,-0.243579 -0.769337,-0.806275 -1.433301,-1.420722 -1.475473,-1.365443 -0.04217,0.05528 -0.478266,0.671029 -0.969092,1.368325 -1.573938,2.236028 -3.538623,2.938018 -4.715799,1.684972 z M 45.168153,87.95469 C 38.154537,85.661498 33.248114,80.696311 31.017904,73.634968 c -0.826965,-2.618356 -1.012712,-6.985592 -0.421261,-9.904526 1.879315,-9.274797 9.426983,-16.061364 19.001828,-17.085695 2.086973,-0.223267 4.606434,0.0317 4.763051,0.482024 0.06015,0.172946 -0.57562,4.243509 -1.412817,9.045697 -0.837197,4.802188 -2.320068,13.910469 -3.295264,20.240625 -0.975198,6.330157 -1.891895,11.658204 -2.037106,11.840105 -0.330108,0.41352 -0.235014,0.425114 -2.448182,-0.298508 z m 3.487367,-7.572846 c 0.619432,-4.147344 2.043748,-12.95797 3.165145,-19.579168 1.121394,-6.621198 2.047864,-12.395729 2.058818,-12.832292 l 0.01992,-0.79375 -2.58105,-0.07574 c -5.446888,-0.159844 -10.710931,1.98723 -14.723754,6.005458 -7.172202,7.181858 -8.035777,18.801861 -2.007614,27.013861 0.948009,1.291447 3.480453,3.778084 4.760335,4.67423 1.239329,0.867752 4.071845,2.248165 5.681017,2.768616 2.61366,0.845333 2.350566,1.366213 3.627184,-7.181212 z"
       style="fill:#fac34c;stroke-width:0.26458335" />
    <path
       inkscape:connector-curvature="0"
       id="path1441"
       d="m 54.957737,140.70685 c -0.08994,-0.14552 -0.03743,-0.26458 0.116676,-0.26458 0.154109,0 0.2802,0.11906 0.2802,0.26458 0,0.14552 -0.0525,0.26458 -0.116676,0.26458 -0.06417,0 -0.190262,-0.11906 -0.2802,-0.26458 z m 30.559378,-24.20938 c 0,-13.46067 -0.0635,-24.473959 -0.141111,-24.473959 -0.07761,0 -0.546004,0.404891 -1.040871,0.89976 -1.757267,1.757265 -3.480982,1.783781 -4.74735,0.07303 -0.452186,-0.610867 -0.55296,-1.131424 -0.55296,-2.856352 v -2.10935 l -1.058334,0.209896 c -1.703549,0.337865 -3.593542,0.165823 -4.34803,-0.395787 -1.642727,-1.222777 -1.401721,-3.202835 0.638122,-5.242674 l 1.41198,-1.411984 -1.304865,-0.93745 c -2.170485,-1.559338 -2.914264,-3.445807 -1.91888,-4.866918 0.636403,-0.90859 1.964907,-1.353839 4.039497,-1.353839 h 1.842112 L 78.09031,73.173694 c -0.579117,-2.019271 -0.06144,-4.618096 1.037011,-5.205971 1.416465,-0.758068 3.797099,0.148389 5.191705,1.976813 0.558892,0.732745 0.791517,0.879655 0.963395,0.608423 0.124624,-0.196665 0.228415,-8.290418 0.230643,-17.986115 0.0033,-14.354786 0.0695,-17.682857 0.356465,-17.921019 0.393158,-0.326291 29.318071,-0.575313 29.117301,-0.250677 -0.0623,0.100703 0.47991,3.315391 1.20486,7.14375 2.13932,11.297474 4.68671,25.996234 6.50245,37.520029 0.37833,2.401094 0.77153,4.449964 0.87378,4.553045 0.10225,0.103082 0.32438,0.101841 0.49362,-0.0028 0.506,-0.312727 22.57433,-35.289966 22.57433,-35.779223 0,-0.248051 -0.51285,-1.215798 -1.13967,-2.15055 -1.64315,-2.450357 -2.3992,-5.010643 -2.40585,-8.147169 -0.006,-2.946311 0.85573,-6.362937 1.60531,-6.362937 0.61162,0 26.3212,13.023783 26.46878,13.408369 0.1861,0.484957 -1.29446,2.481289 -2.98838,4.029439 -2.86396,2.617496 -6.12496,3.82188 -10.41281,3.845761 l -2.76324,0.01539 -0.45954,0.79375 c -0.25275,0.436563 -3.72861,8.41375 -7.72415,17.727084 -3.99554,9.313334 -9.9662,23.224303 -13.26815,30.913274 l -6.00353,13.97993 0.2852,3.62982 c 0.78174,9.94964 0.0441,13.27544 -3.79558,17.11279 -1.9695,1.96832 -4.43391,3.42723 -6.29092,3.72418 -0.55297,0.0884 -1.00539,0.26461 -1.00539,0.39154 0,0.12869 -6.90486,0.23076 -15.61042,0.23076 H 85.517115 Z M 83.250291,93.357468 c 0.46109,-0.284969 1.239931,-1.088641 1.730757,-1.785937 0.490825,-0.697296 0.926917,-1.313043 0.969092,-1.368325 0.04217,-0.05528 0.706136,0.559168 1.475472,1.365443 1.72806,1.811026 3.218062,2.384767 4.319317,1.663195 1.353162,-0.886627 1.639482,-2.373564 1.030418,-5.351253 l -0.170921,-0.835631 1.946447,0.04188 c 2.320912,0.04993 3.532645,-0.387509 4.097123,-1.479095 0.735346,-1.422004 -0.268718,-3.320476 -2.424223,-4.583687 -0.649912,-0.380873 -1.180847,-0.77048 -1.179852,-0.865794 0.0011,-0.09531 0.433205,-0.467151 0.96047,-0.826304 0.527264,-0.359153 1.238236,-1.075478 1.579943,-1.591829 1.821099,-2.751865 0.530512,-4.711057 -2.914319,-4.424121 -0.886751,0.07386 -1.893885,0.223083 -2.238074,0.331602 -0.623273,0.196514 -0.625051,0.190886 -0.44105,-1.394492 0.618832,-5.331897 -3.535098,-6.648559 -6.130671,-1.943222 -0.683821,1.23965 -0.978485,1.262528 -1.678242,0.130297 -0.723415,-1.170511 -2.716649,-2.493769 -3.756382,-2.493769 -1.614853,0 -2.611747,2.168519 -2.072548,4.508367 0.480111,2.083433 0.546386,2.015461 -1.943753,1.993541 -1.857148,-0.01635 -2.35054,0.07128 -2.959878,0.52565 -1.986429,1.481243 -1.063154,3.695716 2.438321,5.848303 0.463679,0.285051 0.400965,0.397271 -0.836732,1.497187 -2.38097,2.115918 -2.810444,4.154022 -1.102312,5.231109 0.705217,0.444688 1.150405,0.514892 2.572586,0.405688 0.945885,-0.07263 2.003483,-0.217265 2.350214,-0.321408 0.62992,-0.189201 0.630285,-0.187997 0.455557,1.504336 -0.387964,3.757592 1.457704,5.742054 3.923239,4.218268 z m -35.181666,43.314482 -1.312971,-1.38906 1.389062,1.31297 c 1.290741,1.22004 1.510401,1.46516 1.312972,1.46516 -0.04185,0 -0.66693,-0.62508 -1.389063,-1.38907 z m -1.636255,-1.85208 c -0.396658,-0.51288 -0.646176,-0.99219 -0.516512,-0.99219 0.06461,0 0.31251,0.29766 0.550881,0.66146 0.446046,0.68075 0.421204,0.91979 -0.03437,0.33073 z m -2.169369,-5.11528 c 0.0127,-0.30822 0.07539,-0.37092 0.159851,-0.15985 0.07643,0.191 0.06703,0.4192 -0.02088,0.50712 -0.08792,0.0879 -0.150453,-0.0684 -0.138964,-0.34727 z m -0.21875,-1.83003 c 0.0029,-0.58209 0.05712,-0.78906 0.120407,-0.45994 0.06329,0.32912 0.06088,0.80537 -0.0053,1.05834 -0.06622,0.25296 -0.118004,-0.0163 -0.115067,-0.5984 z m 0.01527,-4.23334 c 0.0016,-0.87312 0.05088,-1.19841 0.109765,-0.72286 0.05889,0.47555 0.05767,1.18992 -0.0027,1.5875 -0.06037,0.39758 -0.108551,0.008 -0.107065,-0.86464 z m 0.249319,-4.7625 c 0.0029,-0.58208 0.05712,-0.78905 0.120407,-0.45993 0.06329,0.32912 0.06088,0.80537 -0.0053,1.05833 -0.06622,0.25297 -0.118004,-0.0163 -0.115067,-0.5984 z m 0.249442,-3.43958 c 0.0054,-0.43656 0.06469,-0.58312 0.131773,-0.32569 0.06708,0.25743 0.06267,0.61462 -0.0098,0.79375 -0.07248,0.17913 -0.127362,-0.0315 -0.12197,-0.46806 z m 0.264583,-2.91042 c 0.0054,-0.43656 0.06469,-0.58312 0.131773,-0.32569 0.06708,0.25743 0.06267,0.61462 -0.0098,0.79375 -0.07248,0.17913 -0.127362,-0.0315 -0.12197,-0.46806 z m 0.254778,-2.51354 c 0,-0.3638 0.06006,-0.51263 0.133453,-0.33073 0.0734,0.1819 0.0734,0.47956 0,0.66146 -0.0734,0.1819 -0.133453,0.0331 -0.133453,-0.33073 z m 0.264583,-2.38125 c 0,-0.3638 0.06005,-0.51263 0.133453,-0.33073 0.0734,0.1819 0.0734,0.47956 0,0.66146 -0.0734,0.1819 -0.133453,0.0331 -0.133453,-0.33073 z m 0.264583,-2.38125 c 0,-0.3638 0.06005,-0.51263 0.133453,-0.33073 0.0734,0.1819 0.0734,0.47956 0,0.66146 -0.0734,0.1819 -0.133453,0.0331 -0.133453,-0.33073 z m 0.264583,-2.11666 c 0,-0.36381 0.06005,-0.51263 0.133454,-0.33073 0.0734,0.1819 0.0734,0.47955 0,0.66146 -0.0734,0.1819 -0.133454,0.0331 -0.133454,-0.33073 z m 0.243697,-2.27101 c 0.0127,-0.30823 0.07539,-0.37092 0.159851,-0.15985 0.07643,0.19099 0.06703,0.4192 -0.02088,0.50712 -0.08792,0.0879 -0.150453,-0.0684 -0.138965,-0.34727 z m 0.285467,-1.962335 c 0,-0.3638 0.06005,-0.512628 0.133453,-0.33073 0.0734,0.1819 0.0734,0.47956 0,0.66146 -0.0734,0.1819 -0.133453,0.0331 -0.133453,-0.33073 z m 0.264583,-2.116664 c 0,-0.363802 0.06006,-0.512631 0.133453,-0.330729 0.0734,0.181901 0.0734,0.479557 0,0.661458 -0.0734,0.181901 -0.133453,0.03307 -0.133453,-0.330729 z m 0.243697,-2.006423 c 0.0127,-0.308226 0.07539,-0.370919 0.159851,-0.159853 0.07643,0.190994 0.06703,0.4192 -0.02088,0.507119 -0.08792,0.08792 -0.150452,-0.06835 -0.138964,-0.347266 z m -0.285472,-2.226911 c -0.238466,-0.154109 -0.2711,-0.258098 -0.08176,-0.260532 0.173312,-0.0021 0.388699,0.115011 0.478636,0.260532 0.203015,0.328488 0.111422,0.328488 -0.396876,0 z m 1.364692,-5.291667 c 0,-0.363802 0.06005,-0.51263 0.133453,-0.330729 0.0734,0.181901 0.0734,0.479558 0,0.661459 -0.0734,0.181901 -0.133453,0.03307 -0.133453,-0.33073 z m -12.899206,-0.330729 -0.504028,-0.595312 0.595312,0.504028 c 0.327422,0.277215 0.595313,0.545106 0.595313,0.595313 0,0.211733 -0.212935,0.05542 -0.686597,-0.504029 z m 6.705868,-0.08519 c -1.025847,-0.556532 -0.909661,-0.748593 0.132292,-0.218686 0.997352,0.507225 1.173863,0.638686 0.837848,0.62401 -0.133395,-0.0058 -0.569958,-0.188222 -0.97014,-0.405324 z m -8.43427,-1.37002 c -0.329108,-0.419645 -0.319749,-0.429003 0.0999,-0.0999 0.25466,0.199721 0.46302,0.40808 0.46302,0.463021 0,0.217762 -0.217273,0.0776 -0.562916,-0.363125 z m 14.892191,-0.06615 c 0,-0.363802 0.06006,-0.51263 0.133454,-0.330729 0.0734,0.181901 0.0734,0.479557 0,0.661458 -0.0734,0.181901 -0.133454,0.03307 -0.133454,-0.330729 z M 38.122945,84.41674 c -0.329107,-0.419646 -0.319749,-0.429004 0.09989,-0.0999 0.25466,0.199721 0.46302,0.408081 0.46302,0.463021 0,0.217763 -0.217272,0.0776 -0.562916,-0.363124 z m -6.209098,-0.661459 -0.504028,-0.595312 0.595312,0.504028 c 0.327422,0.277215 0.595314,0.545105 0.595314,0.595313 0,0.211733 -0.212936,0.05542 -0.686598,-0.504029 z M 48.51722,83.556844 c 0,-0.363802 0.06005,-0.512631 0.133454,-0.33073 0.0734,0.181902 0.0734,0.479558 0,0.661459 -0.0734,0.181901 -0.133454,0.03307 -0.133454,-0.330729 z m -12.361545,-0.859896 -0.777105,-0.859896 0.859896,0.777105 c 0.472942,0.427408 0.859896,0.814361 0.859896,0.859896 0,0.204406 -0.218315,0.02445 -0.942687,-0.777105 z m 12.605243,-0.881944 c 0.0127,-0.308226 0.07539,-0.370919 0.159851,-0.159853 0.07643,0.190995 0.06703,0.419198 -0.02088,0.507119 -0.08792,0.08792 -0.150453,-0.06835 -0.138965,-0.347266 z M 34.418779,80.712573 c -0.329107,-0.419645 -0.31975,-0.429004 0.0999,-0.0999 0.254661,0.19972 0.463022,0.40808 0.463022,0.463021 0,0.217762 -0.217272,0.0776 -0.562916,-0.363125 z M 49.0255,79.962921 c 0.0127,-0.308227 0.07539,-0.37092 0.159852,-0.159853 0.07643,0.190994 0.06703,0.419197 -0.02088,0.507118 -0.08792,0.08792 -0.150452,-0.06835 -0.138964,-0.347265 z m 0.264584,-1.5875 c 0.0127,-0.308227 0.07539,-0.37092 0.15985,-0.159854 0.07643,0.190995 0.06703,0.419198 -0.02087,0.507119 -0.08792,0.08792 -0.150453,-0.06835 -0.138965,-0.347265 z m -17.09923,-1.193165 c -0.232748,-0.450086 -0.376207,-0.865309 -0.318798,-0.922719 0.05741,-0.05741 0.302388,0.310841 0.544396,0.818338 0.544137,1.141069 0.355603,1.228299 -0.225598,0.104381 z m 17.363813,-0.658919 c 0.0127,-0.308226 0.07539,-0.370919 0.159852,-0.159853 0.07643,0.190995 0.06703,0.419198 -0.02088,0.507119 -0.08792,0.08792 -0.150453,-0.06835 -0.138964,-0.347266 z m 0.264584,-1.5875 c 0.0127,-0.308226 0.07539,-0.370919 0.159851,-0.159853 0.07643,0.190995 0.06703,0.419198 -0.02088,0.507119 -0.08792,0.08792 -0.150452,-0.06835 -0.138964,-0.347266 z m 0.264584,-1.852083 c 0.0127,-0.308226 0.07539,-0.370919 0.159849,-0.159853 0.07643,0.190994 0.06703,0.419198 -0.02088,0.507119 -0.08792,0.08792 -0.150453,-0.06835 -0.138965,-0.347266 z m -23.547919,-0.79375 c 0.01269,-0.308226 0.07539,-0.370919 0.159852,-0.159853 0.07643,0.190994 0.06703,0.419198 -0.02089,0.507119 -0.08792,0.08792 -0.150452,-0.06835 -0.138964,-0.347266 z m 23.812501,-0.79375 c 0.0127,-0.308226 0.07539,-0.370919 0.159851,-0.159853 0.07643,0.190994 0.06703,0.419198 -0.02088,0.507119 -0.08792,0.08792 -0.150453,-0.06835 -0.138965,-0.347266 z M 30.240082,70.967087 c 0.01269,-0.308226 0.07539,-0.370919 0.159852,-0.159853 0.07643,0.190995 0.06703,0.419198 -0.02089,0.507119 -0.08792,0.08792 -0.150453,-0.06835 -0.138964,-0.347266 z m -3.938058,-0.771702 c 0.0054,-0.436563 0.06469,-0.583126 0.131773,-0.325694 0.06708,0.257431 0.06267,0.614619 -0.0098,0.79375 -0.07248,0.179131 -0.127363,-0.03149 -0.12197,-0.468056 z M 50.613,69.908754 c 0.0127,-0.308226 0.07539,-0.37092 0.159852,-0.159853 0.07643,0.190994 0.06703,0.419197 -0.02088,0.507119 -0.08792,0.08792 -0.150452,-0.06835 -0.138964,-0.347266 z M 30.039296,67.681843 c 0,-0.945885 0.04802,-1.332838 0.106713,-0.859896 0.05869,0.472943 0.05869,1.246849 0,1.719792 -0.05869,0.472943 -0.106713,0.08599 -0.106713,-0.859896 z m 20.838288,0.374827 c 0.0127,-0.308226 0.07539,-0.370919 0.15985,-0.159853 0.07643,0.190995 0.06703,0.419198 -0.02087,0.507119 -0.08792,0.08792 -0.150453,-0.06835 -0.138965,-0.347266 z m 0.264583,-1.5875 c 0.0127,-0.308226 0.07539,-0.370919 0.159852,-0.159853 0.07643,0.190995 0.06703,0.419198 -0.02088,0.507119 -0.08792,0.08792 -0.150453,-0.06835 -0.138964,-0.347266 z M 26.302024,65.168301 c 0.0054,-0.436562 0.06469,-0.583125 0.131773,-0.325694 0.06708,0.257432 0.06267,0.614619 -0.0098,0.79375 -0.07248,0.179131 -0.127363,-0.03149 -0.12197,-0.468056 z M 51.40675,64.88167 c 0.0127,-0.308226 0.07539,-0.370919 0.159852,-0.159853 0.07643,0.190995 0.06703,0.419198 -0.02088,0.507119 -0.08792,0.08792 -0.150452,-0.06835 -0.138964,-0.347266 z M 30.260971,64.506843 c 0,-0.363802 0.06005,-0.51263 0.133451,-0.330729 0.0734,0.181901 0.0734,0.479557 0,0.661458 -0.0734,0.181901 -0.133451,0.03307 -0.133451,-0.330729 z M 26.535916,63.29417 c 0.01269,-0.308226 0.07539,-0.370919 0.159852,-0.159853 0.07643,0.190995 0.06703,0.419198 -0.02089,0.507119 -0.08792,0.08792 -0.150452,-0.06835 -0.138964,-0.347266 z m 25.135418,0 c 0.0127,-0.308226 0.07539,-0.370919 0.15985,-0.159853 0.07643,0.190995 0.06703,0.419198 -0.02088,0.507119 -0.08792,0.08792 -0.150452,-0.06835 -0.138964,-0.347266 z M 30.504665,63.029587 c 0.0127,-0.308226 0.07539,-0.370919 0.159852,-0.159853 0.07643,0.190994 0.06703,0.419198 -0.02089,0.507119 -0.08792,0.08792 -0.150453,-0.06835 -0.138965,-0.347266 z m -3.704167,-1.058333 c 0.01269,-0.308227 0.07539,-0.37092 0.159853,-0.159854 0.07643,0.190995 0.06703,0.419198 -0.02089,0.507119 -0.08792,0.08792 -0.150453,-0.06835 -0.138965,-0.347265 z M 51.935917,61.70667 c 0.0127,-0.308226 0.07539,-0.370919 0.159851,-0.159853 0.07643,0.190995 0.06703,0.419198 -0.02088,0.507119 -0.08792,0.08792 -0.150452,-0.06835 -0.138964,-0.347266 z m 0.264583,-1.5875 c 0.0127,-0.308226 0.07539,-0.370919 0.159851,-0.159853 0.07643,0.190995 0.06703,0.419198 -0.02088,0.507119 -0.08792,0.08792 -0.150453,-0.06835 -0.138965,-0.347266 z m 0.264584,-1.5875 c 0.0127,-0.308226 0.07539,-0.370919 0.15985,-0.159853 0.07643,0.190995 0.06703,0.419198 -0.02088,0.507119 -0.08792,0.08792 -0.150453,-0.06835 -0.138965,-0.347266 z m 0.264583,-1.322917 c 0.0127,-0.308226 0.07539,-0.370919 0.159851,-0.159853 0.07643,0.190995 0.06703,0.419198 -0.02088,0.507119 -0.08792,0.08792 -0.150453,-0.06835 -0.138964,-0.347266 z m 0.264583,-1.5875 c 0.0127,-0.308226 0.07539,-0.370919 0.159852,-0.159853 0.07643,0.190995 0.06703,0.419198 -0.02087,0.507119 -0.08792,0.08792 -0.150452,-0.06835 -0.138964,-0.347266 z M 29.425443,55.246426 c 0.155761,-0.291042 0.342733,-0.529167 0.415494,-0.529167 0.07276,0 0.0049,0.238125 -0.15091,0.529167 -0.155761,0.291042 -0.342733,0.529167 -0.415493,0.529167 -0.07276,0 -0.0048,-0.238125 0.150909,-0.529167 z m 6.879168,-2.513542 c 0.937477,-0.945885 1.764036,-1.719791 1.836796,-1.719791 0.07276,0 -0.634735,0.773906 -1.572212,1.719791 -0.937478,0.945886 -1.764036,1.719792 -1.836797,1.719792 -0.07276,0 0.634736,-0.773906 1.572213,-1.719792 z m 16.954223,1.300869 c 0.0127,-0.308226 0.07539,-0.370919 0.15985,-0.159853 0.07643,0.190995 0.06703,0.419198 -0.02087,0.507119 -0.08792,0.08792 -0.150453,-0.06835 -0.138965,-0.347266 z m -22.24589,-1.268472 c 0,-0.05494 0.208359,-0.263301 0.46302,-0.463021 0.419645,-0.329107 0.429004,-0.319749 0.0999,0.09989 -0.345643,0.440729 -0.562915,0.580888 -0.562915,0.363126 z m 22.510473,-0.319028 c 0.0127,-0.308225 0.07539,-0.37092 0.159852,-0.159853 0.07643,0.190996 0.06703,0.419199 -0.02088,0.507118 -0.08792,0.08792 -0.150452,-0.06835 -0.138964,-0.347265 z M 33.526485,49.954759 c 0.864016,-0.873125 1.630468,-1.5875 1.703227,-1.5875 0.07276,0 -0.574629,0.714375 -1.438643,1.5875 -0.864014,0.873125 -1.630466,1.5875 -1.703227,1.5875 -0.07276,0 0.57463,-0.714375 1.438643,-1.5875 z m 4.894793,0.958439 c 0,-0.05494 0.208359,-0.263302 0.46302,-0.463021 0.419644,-0.329107 0.429004,-0.319749 0.09989,0.09989 -0.345644,0.440729 -0.562917,0.580887 -0.562917,0.363126 z m 15.631307,-1.377362 c 0.0127,-0.308225 0.07539,-0.37092 0.159851,-0.159853 0.07643,0.190996 0.06703,0.4192 -0.02088,0.507118 -0.08792,0.08792 -0.150453,-0.06835 -0.138965,-0.347265 z M 40.802528,49.295815 c 0,-0.181045 1.62002,-0.98423 1.741057,-0.863193 0.05741,0.05741 -0.310843,0.302388 -0.818337,0.544395 -0.507497,0.242008 -0.92272,0.385467 -0.92272,0.318798 z m -5.291666,-1.02845 c 0,-0.05494 0.208359,-0.263302 0.46302,-0.463021 0.419644,-0.329108 0.429003,-0.31975 0.0999,0.09989 -0.345644,0.44073 -0.562915,0.580888 -0.562915,0.363127 z m 18.806306,-0.319029 c 0.0127,-0.308225 0.07539,-0.37092 0.159851,-0.159853 0.07643,0.190996 0.06703,0.419199 -0.02088,0.507118 -0.08792,0.08792 -0.150452,-0.06835 -0.138964,-0.347265 z m -7.214249,-1.084734 c 0.190995,-0.07643 0.419197,-0.06703 0.50712,0.02089 0.08792,0.08792 -0.06835,0.150453 -0.347266,0.138964 -0.308227,-0.01269 -0.37092,-0.07539 -0.159853,-0.159852 z m 1.570963,-0.259071 c 0.181901,-0.0734 0.479558,-0.0734 0.661459,0 0.181902,0.0734 0.03307,0.133452 -0.33073,0.133452 -0.363802,0 -0.51263,-0.06005 -0.330729,-0.133452 z m 4.497917,0 c 0.181902,-0.0734 0.479557,-0.0734 0.661459,0 0.181902,0.0734 0.03307,0.133452 -0.33073,0.133452 -0.363802,0 -0.51263,-0.06005 -0.330729,-0.133452 z m -5.804297,-3.709679 c 0.190996,-0.07643 0.419199,-0.06703 0.50712,0.02089 0.08792,0.08792 -0.06835,0.150453 -0.347266,0.138964 -0.308226,-0.01269 -0.370919,-0.07539 -0.159853,-0.159852 z m 2.900873,-0.277914 c 0.622311,-0.05589 1.574811,-0.05511 2.116667,0.0017 0.541856,0.05685 0.0327,0.102583 -1.131472,0.101622 -1.164167,-9.52e-4 -1.607505,-0.04748 -0.985195,-0.103369 z m 4.970955,-0.148069 c 0.09936,-0.260938 0.247304,-0.407781 0.328766,-0.326319 0.08146,0.08146 1.69e-4,0.294956 -0.180652,0.474431 -0.261308,0.259363 -0.291698,0.228972 -0.148114,-0.148112 z m 0.929921,-4.310117 c 0.0127,-0.308224 0.07539,-0.370919 0.15985,-0.159852 0.07643,0.190996 0.06703,0.419199 -0.02088,0.507118 -0.08792,0.08792 -0.150453,-0.06835 -0.138965,-0.347266 z m 0.264583,-1.322917 c 0.0127,-0.308224 0.07539,-0.370919 0.159851,-0.159852 0.07643,0.190996 0.06703,0.419199 -0.02088,0.507118 -0.08792,0.08792 -0.150452,-0.06835 -0.138964,-0.347266 z"
       style="fill:#ef800a;stroke-width:0.26458335" />
    <path
       inkscape:connector-curvature="0"
       id="path1439"
       d="m 55.354613,140.7363 c 0,-0.12933 -0.386953,-0.30792 -0.859896,-0.39686 -3.703053,-0.69644 -8.270235,-4.91494 -9.574548,-8.84357 -1.290349,-3.88658 -0.882072,-12.60998 1.460257,-31.2005 0.444373,-3.526885 0.77012,-6.730159 0.723883,-7.118387 -0.07667,-0.643684 -0.277586,-0.758537 -2.280744,-1.30375 -8.837648,-2.40541 -15.526868,-9.259317 -17.800031,-18.238265 -1.195632,-4.72272 -0.728522,-10.755106 1.20039,-15.502186 2.122728,-5.224066 6.672391,-10.10499 11.842575,-12.704833 3.620053,-1.820354 6.083501,-2.396904 11.043003,-2.584524 l 4.353848,-0.164708 0.745464,-3.704166 c 0.410006,-2.037292 0.712962,-3.935255 0.673235,-4.217695 -0.04636,-0.32963 -0.379669,-0.592771 -0.930749,-0.734813 -1.764726,-0.45486 -2.135643,-2.525317 -0.592294,-3.306198 0.824847,-0.417344 59.337674,-0.499677 60.428284,-0.08503 0.74455,0.283078 1.09927,1.233311 0.84242,2.256703 -0.35638,1.419906 -0.7688,1.456822 -16.27532,1.456822 -10.693438,0 -14.280717,0.07844 -14.519776,0.3175 -0.240501,0.240501 -0.318482,4.587756 -0.321551,17.925522 -0.0021,9.684411 -0.106019,17.76893 -0.230643,17.965595 -0.171878,0.271232 -0.404503,0.124322 -0.963395,-0.608423 -1.394606,-1.828424 -3.77524,-2.734881 -5.191705,-1.976813 -1.098452,0.587875 -1.616128,3.1867 -1.037011,5.205971 l 0.246116,0.858149 h -1.842112 c -2.07459,0 -3.403094,0.445249 -4.039497,1.353839 -0.995384,1.421111 -0.251605,3.30758 1.91888,4.866918 l 1.304865,0.93745 -1.411981,1.411984 c -3.48075,3.480747 -1.394905,6.650895 3.709908,5.638461 l 1.058334,-0.209896 v 2.109345 c 0,1.724928 0.100774,2.245485 0.55296,2.856352 1.266368,1.710756 2.990083,1.68424 4.74735,-0.07303 0.494867,-0.494869 0.963259,-0.89976 1.040871,-0.89976 0.07761,0 0.141111,11.013286 0.141111,24.473956 v 24.47396 H 70.435863 c -8.618718,0 -15.081251,-0.10075 -15.081251,-0.23513 z M 47.901516,88.120906 c 0.131141,-0.254661 0.318296,-1.117864 0.415906,-1.918229 0.431787,-3.540588 2.712877,-17.985015 4.44323,-28.135665 1.592062,-9.339386 1.828586,-11.110035 1.512917,-11.325862 -0.213881,-0.146233 -1.790948,-0.209378 -3.681457,-0.147404 -2.844789,0.09326 -3.658794,0.226734 -5.820834,0.954485 -6.620151,2.228367 -11.410871,7.006151 -13.662188,13.625304 -3.644601,10.71557 2.385423,22.879297 13.210077,26.647289 2.522942,0.878218 3.253131,0.939384 3.582349,0.300082 z"
       style="fill:#e6500d;stroke-width:0.26458335" />
  </g>
</svg>
